# xmcd CD database file
#
# Track frame offsets:
#	150
#	18132
#	36722
#
# Disc length: 736 seconds
#
# Revision: 3
# Processed by: cddbd v1.5.2PL0 Copyright (c) Steve Scherf et al.
# Submitted via: CDex 1.81
#
DISCID=1e02de03
DTITLE=Michelle - Ich Schicke Dir Jetzt Einen Engel [CDM)
DYEAR=2001
DGENRE=Schlager
TTITLE0=Ich Schicke Dir Jetzt Einen Engel - Single Version
TTITLE1=To Live For Love
TTITLE2=Wer Liebe Lebt - Instrumental
EXTD=YEAR: 2001
EXTT0=
EXTT1=
EXTT2=
PLAYORDER=
